<svg id="Layer_1" data-name="Layer 1" xmlns="http://www.w3.org/2000/svg" viewBox="0 0 64.25 64"><defs><style>.cls-1{fill:#fefefe;}</style></defs><title>groups_icon_black</title><path class="cls-1" d="M64.1,35.14l-0.12,0-0.11.05a2.53,2.53,0,0,1-2.65,2c-1.67,0-3.34,0-5,0a0.85,0.85,0,0,0-1,.77c-2.59,8.82-8.36,14.46-17.17,17a0.86,0.86,0,0,0-.76,1c0,1.63,0,3.26,0,4.89a2.68,2.68,0,0,1-2.85,2.91q-2.38.05-4.76,0a2.78,2.78,0,0,1-2.94-3c0-1.59,0-3.18,0-4.76a0.9,0.9,0,0,0-.81-1.08C17.24,52.31,11.57,46.67,9,38a0.91,0.91,0,0,0-1.08-.83c-1.63,0-3.26,0-4.89,0A2.71,2.71,0,0,1,.16,34.36q-0.07-2.51,0-5A2.68,2.68,0,0,1,3.07,26.6c1.59,0,3.18,0,4.76,0A1,1,0,0,0,9,25.74c2.56-8.65,8.18-14.27,16.84-16.82a1,1,0,0,0,.89-1.15c-0.07-1.33.05-2.68,0-4a3.48,3.48,0,0,1,2-3.74c-9.32,0-18.64,0-28,0C0,0-.13.15-0.13,0.9q0,31.1,0,62.2c0,0.75.15,0.9,0.9,0.9Q32,64,63.23,64c0.75,0,.9-0.15.9-0.9C64.09,53.78,64.1,44.46,64.1,35.14Z" transform="translate(0.13 0)"/><path class="cls-1" d="M28.6,0.47c-1.44.92-1.61,2.32-1.54,3.85,0,1,0,2.09,0,3.13a1.63,1.63,0,0,1-1.39,1.88,23.39,23.39,0,0,0-12.78,9,21.55,21.55,0,0,0-3.48,7.31A1.58,1.58,0,0,1,7.66,27c-1.5,0-3,0-4.51,0A2.43,2.43,0,0,0,.51,29.51c-0.08,1.54-.07,3.09,0,4.64a2.5,2.5,0,0,0,2.72,2.64c1.34,0.05,2.67,0,4,0,1.74,0,1.77,0,2.28,1.67a23.53,23.53,0,0,0,12.6,14.67,19.49,19.49,0,0,0,3.65,1.31,1.58,1.58,0,0,1,1.32,1.81q0,2.07,0,4.13c0,2,1,3,3,3,1.29,0,2.59,0,3.88,0,2,0,2.89-.91,2.92-2.92,0-1.38,0-2.76,0-4.14a1.73,1.73,0,0,1,1.46-1.88A23.48,23.48,0,0,0,52.76,43.12a17.91,17.91,0,0,0,2-4.86,1.68,1.68,0,0,1,2-1.47c1.17,0.05,2.34,0,3.51,0a3.55,3.55,0,0,0,3.53-1.67,0.32,0.32,0,0,1,.14-0.06q0-3.26,0-6.51a2.38,2.38,0,0,0-2.51-2c-1.63,0-3.26-.07-4.89,0a1.14,1.14,0,0,1-1.35-1C52.72,17.36,47.35,11.95,39.25,9.2c-1.94-.66-2-0.63-2-2.74a29.56,29.56,0,0,1,0-3A3.09,3.09,0,0,0,35.26,0H28.74A0.39,0.39,0,0,1,28.6.47Zm5.69,20.83a2.7,2.7,0,0,0,3-3c0-1.29,0-2.59,0-3.88a0.63,0.63,0,0,1,.09-0.21c5.52,1.13,11.71,7.25,12.49,12.42-1.43,0-2.84,0-4.26,0A2.66,2.66,0,0,0,42.8,29.3c-0.06,1.71-.06,3.43,0,5.14a2.69,2.69,0,0,0,2.83,2.71c0.71,0,1.42,0,2.13,0H49.9C49,42.4,43,48.39,37.29,49.6c0-1.43,0-2.83,0-4.24a2.59,2.59,0,0,0-2.62-2.87,51.39,51.39,0,0,0-5.26,0,2.68,2.68,0,0,0-2.67,2.87c0,1.41,0,2.82,0,4.35A19,19,0,0,1,14.15,37.14c1.55,0,2.93,0,4.31,0a2.67,2.67,0,0,0,2.95-2.71c0.08-1.71.08-3.43,0-5.14a2.64,2.64,0,0,0-2.93-2.7h-4.3A18.81,18.81,0,0,1,26.73,14c0,1.45,0,2.77,0,4.1,0,2,1,3.11,3,3.15C31.28,21.32,32.79,21.32,34.29,21.29Z" transform="translate(0.13 0)"/><path class="cls-1" d="M37.6,3c0,1.38,0,2.76,0,4.14A1.38,1.38,0,0,0,38.76,8.7,24.33,24.33,0,0,1,53,19.56a19.61,19.61,0,0,1,2.38,5.5,1.39,1.39,0,0,0,1.59,1.22c1.46,0,2.93,0,4.39,0a2.34,2.34,0,0,1,2.63,2.3,0.32,0.32,0,0,0,.17,0c0-9.24,0-18.48,0-27.72,0-.75-0.15-0.9-0.9-0.9-9.32,0-18.64,0-28,0C37,0.47,37.56,1.22,37.6,3Z" transform="translate(0.13 0)"/><path class="cls-1" d="M63.94,28.66c0,0.09,0,.16,0,0.26-0.06,2.06.12,4.12-.1,6.18a0.3,0.3,0,0,1,.23,0V28.61C64,28.69,64,28.69,63.94,28.66Z" transform="translate(0.13 0)"/><path class="cls-1" d="M63.87,35.09v0.07s0,0,0-.07h0Z" transform="translate(0.13 0)"/><path class="cls-1" d="M63.93,28.59H63.88a0.15,0.15,0,0,0,.07.07V28.59Z" transform="translate(0.13 0)"/></svg>