<?xml version="1.0" encoding="utf-8"?>
<!-- Generator: Adobe Illustrator 19.2.1, SVG Export Plug-In . SVG Version: 6.00 Build 0)  -->
<svg version="1.1" id="Layer_1" xmlns="http://www.w3.org/2000/svg" xmlns:xlink="http://www.w3.org/1999/xlink" x="0px" y="0px"
	 viewBox="0 0 64 64" style="enable-background:new 0 0 64 64;" xml:space="preserve">
<style type="text/css">
	.st0{fill:#FFFFFF;}
</style>
<g>
	<path d="M0,61C0,41.8,0,22.7,0,3.5c21.3,0,42.7,0,64,0c0,19.2,0,38.3,0,57.5C42.7,61,21.3,61,0,61z M32,14.5c-8.3,0-16.6,0-24.8,0
		c-2.2,0-2.9,0.8-2.9,2.9c0,11.7,0,23.5,0,35.2c0,2.6,0.8,3.4,3.4,3.4c16.3,0,32.7,0,49,0c2.7,0,3.5-0.8,3.5-3.5
		c0-11.6,0-23.2,0-34.8c0-2.5-0.8-3.3-3.3-3.3C48.5,14.5,40.3,14.5,32,14.5z M8.1,8.8c-0.2-1.2-0.9-2-2.1-2c-1.3,0-2,0.8-2.1,2.1
		c-0.1,1.2,1,2.2,2.2,2.1C7.4,10.8,8,10,8.1,8.8z M11.9,11c1.2-0.2,2-0.8,2.1-2.1c0-1.3-0.8-2-2-2.1c-1.2-0.1-2.2,1-2.1,2.1
		C9.9,10.2,10.6,10.8,11.9,11z"/>
	<path class="st0" d="M8.1,8.8"/>
	<path class="st0" d="M9.8,8.9"/>
	<path class="st0" d="M13.9,8.9"/>
	<path d="M30.4,27.2c-6.3,0-12.5,0-18.8,0c-0.5,0-1.1,0-1.6-0.1c-1.2-0.4-1.9-1.3-1.8-2.6c0.1-1.3,0.9-2.2,2.2-2.4
		c0.5-0.1,1.1,0,1.6,0c12.3,0,24.5,0,36.8,0c0.4,0,0.8,0,1.1,0c1.6,0.1,2.7,1.2,2.7,2.6c0,1.5-1.1,2.5-2.8,2.5c-4.4,0-8.9,0-13.3,0
		C34.5,27.2,32.4,27.2,30.4,27.2z"/>
	<path d="M30.4,31.8c6.2,0,12.4,0,18.6,0c0.5,0,1,0,1.5,0.1c1.3,0.3,2.1,1.1,2.1,2.5c0,1.4-0.8,2.3-2.2,2.6C49.9,37,49.4,37,49,37
		c-12.4,0-24.9,0-37.3,0c-0.3,0-0.5,0-0.8,0c-1.6-0.1-2.7-1.2-2.7-2.6c0-1.5,1.1-2.5,2.8-2.6c3.8,0,7.7,0,11.5,0
		C25.1,31.8,27.7,31.8,30.4,31.8z"/>
	<path d="M22.2,46.7c-3.7,0-7.3,0-11,0c-1.9,0-3.1-1-3.1-2.6c0-1.6,1.2-2.6,3-2.6c7.5,0,15,0,22.5,0c1.9,0,3,1.1,3,2.6
		c0,1.5-1.2,2.5-3,2.5C29.9,46.7,26.1,46.7,22.2,46.7z"/>
</g>
</svg>
