<?xml version="1.0" encoding="utf-8"?>
<!-- Generator: Adobe Illustrator 19.2.1, SVG Export Plug-In . SVG Version: 6.00 Build 0)  -->
<svg version="1.1" xmlns="http://www.w3.org/2000/svg" xmlns:xlink="http://www.w3.org/1999/xlink" x="0px" y="0px"
	 viewBox="0 0 64 64" style="enable-background:new 0 0 64 64;" xml:space="preserve">
<style type="text/css">
	.st0{display:none;}
	.st1{display:inline;}
</style>
<g id="Layer_1">
	<g>
		<path d="M64,24.2c-0.9,2.7-1.8,5.3-2.7,8c-0.7,2-1.3,4-1.9,6c-1.2,0-2.4,0-3.6,0c-0.8-2.8-1.5-5.7-2.3-8.5c-0.1,0-0.2,0-0.3,0
			c-0.8,2.8-1.5,5.7-2.3,8.4c-0.2,0.1-0.2,0.1-0.2,0.1c-3.4,0.3-3.4,0.3-4.4-2.9c-1.2-3.7-2.3-7.4-3.5-11.2c1.2,0,2.4,0,3.6,0
			c0.8,2.9,1.7,5.8,2.7,9.2c0.9-3.3,1.7-6.2,2.5-9.2c1.2,0,2.4,0,3.7,0c0.7,2.9,1.5,5.9,2.2,8.8c0.1,0,0.2,0,0.2,0
			c0.9-2.9,1.7-5.9,2.6-8.9c1.3,0,2.5,0,3.8,0C64,24,64,24.1,64,24.2z"/>
		<path d="M0,24c1.1,0,2.2,0,3.5,0c0.8,2.9,1.7,5.9,2.7,9.3C7,29.9,7.8,27,8.6,24c1.2,0,2.4,0,3.7,0c0.7,2.9,1.5,5.9,2.2,8.8
			c0.1,0,0.2,0,0.2,0c0.9-2.9,1.7-5.8,2.6-8.8c1.2,0,2.4,0,3.7,0c-0.7,2.1-1.3,4.1-2,6.2c-0.8,2.4-1.5,4.7-2.2,7.1
			c-0.2,0.7-0.5,1-1.3,1c-2.6,0-2.6,0-3.2-2.4c-0.6-2.1-1.1-4.1-2-6.2c-0.5,1.8-1,3.6-1.5,5.4c-0.1,0.3-0.1,0.5-0.2,0.8
			c-0.6,2.4-1.4,2.9-3.8,2.3c-0.3-0.1-0.6-0.4-0.7-0.7C2.7,33.2,1.4,28.9,0,24.5C0,24.4,0,24.2,0,24z"/>
		<path d="M38.8,24c1.2,0,2.3,0,3.6,0c-0.1,0.4-0.1,0.7-0.2,1.1c-1.3,4-2.6,8-3.8,12c-0.3,0.9-0.7,1.3-1.6,1.2
			c-0.4-0.1-0.9-0.1-1.4,0c-0.8,0.1-1.1-0.2-1.3-1c-0.6-2.5-1.3-5-2.3-7.6c-0.8,2.8-1.5,5.6-2.3,8.6c-1,0-2,0.1-3,0
			c-0.3,0-0.8-0.4-0.8-0.6c-1.4-4.4-2.8-8.8-4.2-13.2c0-0.1,0-0.2,0-0.3c1.1,0,2.2,0,3.5,0c0.9,2.9,1.7,5.9,2.7,9.2
			c0.9-3.3,1.7-6.3,2.5-9.2c1.2,0,2.3,0,3.6,0c0.7,2.9,1.5,5.8,2.2,8.8c0.1,0,0.2,0,0.3,0C37,29.8,37.9,26.9,38.8,24z"/>
	</g>
	<path d="M32,2.8c-12.1,0-22.4,7.7-26.3,18.6h52.7C54.4,10.5,44.1,2.8,32,2.8z"/>
	<path d="M6.2,41.8c4.3,10.8,14.5,18.3,26.4,18.3s22.2-7.6,26.4-18.3H6.2z"/>
</g>
<g id="Layer_2" class="st0">
	<path class="st1" d="M-12.1,23.2c4.1,0,8,0,12.6,0c3.1,10.6,6.2,21.4,9.7,33.7c3.2-12.1,6-22.7,8.9-33.5c4.3,0,8.6,0,13.3,0
		c2.7,10.6,5.4,21.4,8.2,32.1c0.3,0,0.6,0,0.9-0.1c3.1-10.6,6.3-21.2,9.4-32.1c4.3,0,8.6,0,13.4,0c-2.5,7.7-4.8,15.1-7.2,22.5
		c-2.7,8.6-5.6,17.1-8.2,25.7c-0.8,2.7-2,3.6-4.8,3.6c-9.3,0-9.3,0.1-11.8-8.7c-2.1-7.5-4-15-7.1-22.6c-1.8,6.6-3.6,13.2-5.3,19.8
		c-0.3,1-0.4,1.9-0.7,2.9C16.9,75.2,14,77,5.3,75c-1-0.2-2.1-1.5-2.5-2.5c-5.1-15.7-10-31.4-14.9-47.1
		C-12.2,24.8-12.1,24.1-12.1,23.2z"/>
	<path class="st1" d="M65.7,23.2c4.1,0,8,0,12.6,0c3.1,10.6,6.2,21.4,9.7,33.7c3.2-12.1,6-22.7,8.9-33.5c4.3,0,8.6,0,13.3,0
		c2.7,10.6,5.4,21.4,8.2,32.1c0.3,0,0.6,0,0.9-0.1c3.1-10.6,6.3-21.2,9.4-32.1c4.3,0,8.6,0,13.4,0c-2.5,7.7-4.8,15.1-7.2,22.5
		c-2.7,8.6-5.6,17.1-8.2,25.7c-0.8,2.7-2,3.6-4.8,3.6c-9.3,0-9.3,0.1-11.8-8.7c-2.1-7.5-4-15-7.1-22.6c-1.8,6.6-3.6,13.2-5.3,19.8
		c-0.3,1-0.4,1.9-0.7,2.9C94.7,75.2,91.7,77,83.1,75c-1-0.2-2.1-1.5-2.5-2.5c-5.1-15.7-10-31.4-14.9-47.1
		C65.5,24.8,65.7,24.1,65.7,23.2z"/>
</g>
</svg>
